<svg width="22" height="14" viewBox="0 0 22 14" fill="none" xmlns="http://www.w3.org/2000/svg">
<path d="M20.3333 5.83333H1.66667C0.966667 5.83333 0.5 6.3 0.5 7C0.5 7.7 0.966667 8.16667 1.66667 8.16667H20.3333C21.0333 8.16667 21.5 7.7 21.5 7C21.5 6.3 21.0333 5.83333 20.3333 5.83333ZM1.66667 2.33333H20.3333C21.0333 2.33333 21.5 1.86667 21.5 1.16667C21.5 0.466667 21.0333 0 20.3333 0H1.66667C0.966667 0 0.5 0.466667 0.5 1.16667C0.5 1.86667 0.966667 2.33333 1.66667 2.33333ZM20.3333 11.6667H1.66667C0.966667 11.6667 0.5 12.1333 0.5 12.8333C0.5 13.5333 0.966667 14 1.66667 14H20.3333C21.0333 14 21.5 13.5333 21.5 12.8333C21.5 12.1333 21.0333 11.6667 20.3333 11.6667Z" fill="black"/>
</svg>
